<svg width="16" height="15" viewBox="0 0 16 15" fill="none" xmlns="http://www.w3.org/2000/svg">
<path d="M4.93192 8.23937C4.90786 7.7495 4.9027 7.25103 4.91473 6.75773C4.91473 6.73366 4.91645 6.7096 4.91645 6.68382C4.92161 6.536 4.92676 6.38646 4.93535 6.24035C4.94223 6.09253 4.95254 5.94471 4.96285 5.80033C4.97316 5.65423 4.98691 5.50813 5.00066 5.36203H1.24738C1.19926 5.53907 1.15802 5.71783 1.12365 5.89659C1.09787 6.03066 1.07553 6.16988 1.05662 6.30739C1.03772 6.4449 1.02397 6.58412 1.01366 6.72163C1.01194 6.74398 1.01022 6.76632 1.0085 6.79038C0.977571 7.25103 0.991319 7.71684 1.04803 8.17577C1.09099 8.52641 1.16145 8.87362 1.25425 9.21395H5.0041C4.97144 8.89425 4.94738 8.56767 4.93192 8.23937ZM10.7904 5.36203H5.73963C5.72244 5.52532 5.70869 5.69032 5.69495 5.85533C5.68463 5.99456 5.67604 6.13722 5.66745 6.27989C5.66057 6.42083 5.6537 6.5635 5.65026 6.70616C5.65026 6.73022 5.64855 6.75257 5.64855 6.77663C5.63652 7.25103 5.64167 7.73231 5.66401 8.20327C5.6812 8.5436 5.70698 8.88221 5.74135 9.21395H10.787C10.921 7.94888 10.921 6.63053 10.7904 5.36203ZM15.2826 5.36203H11.5276C11.6531 6.63053 11.6531 7.94716 11.5259 9.21395H15.2758C15.6246 7.9506 15.6264 6.62881 15.2826 5.36203ZM13.406 2.13404C12.4179 1.14399 11.1925 0.475357 9.85895 0.177998C10.1786 0.576769 10.469 1.10102 10.7199 1.74043C11.0447 2.57234 11.2871 3.54349 11.44 4.6298H15.0403C14.676 3.69991 14.1175 2.84392 13.406 2.13404ZM10.036 2.00856C9.53931 0.73834 8.89486 0.00783222 8.26931 0.00439453H8.25728C7.63173 0.00955106 6.98728 0.740059 6.49063 2.00856C6.20019 2.74939 5.97335 3.65006 5.82899 4.6298H10.6959C10.5532 3.64834 10.3264 2.74939 10.036 2.00856ZM11.4366 9.94962C11.2836 11.0256 11.043 11.9882 10.7199 12.8132C10.469 13.4526 10.1786 13.9769 9.85895 14.3756C11.1925 14.0783 12.4179 13.4096 13.4077 12.4196C14.1123 11.7149 14.6674 10.8692 15.03 9.9479H11.4366V9.94962ZM5.83415 9.94962C5.9785 10.9208 6.20363 11.8111 6.49235 12.5468C6.989 13.817 7.63345 14.5475 8.259 14.551H8.27103C8.89657 14.5458 9.54102 13.8153 10.0377 12.5468C10.3247 11.8111 10.5515 10.9208 10.6959 9.94962H5.83415ZM5.81009 12.8132C5.487 11.9882 5.24641 11.0256 5.09346 9.94962H1.50001C1.86433 10.8692 2.4177 11.7166 3.1223 12.4213C4.11218 13.4114 5.33577 14.08 6.67107 14.3774C6.34971 13.9769 6.05928 13.4526 5.81009 12.8132ZM3.1223 2.13404C2.41083 2.84564 1.85402 3.69991 1.48969 4.6298H5.09002C5.24297 3.54349 5.48357 2.57234 5.81009 1.74043C6.06099 1.10102 6.35143 0.576769 6.67107 0.177998C5.33577 0.475357 4.11218 1.14399 3.1223 2.13404Z" fill="#4e4c4c"/>
</svg>
