<svg id="Layer_1" data-name="Layer 1" xmlns="http://www.w3.org/2000/svg" viewBox="0 0 291.32 291.32"><defs><style>.cls-1{fill:#fff;}.cls-2{fill:#EA4335;}</style></defs><path class="cls-1" d="M145.79.12c80.11,0,145.66,65.56,145.66,145.67S225.9,291.45,145.79,291.45.12,225.9.12,145.79,65.68.12,145.79.12Z" transform="translate(-0.13 -0.13)"/><polygon class="cls-2" points="219.4 121.07 219.4 137.46 235.78 137.46 235.78 153.85 219.4 153.85 219.4 170.24 203.01 170.24 203.01 153.85 186.62 153.85 186.62 137.46 203.01 137.46 203.01 121.07 219.4 121.07"/><path class="cls-2" d="M72,186.76c-21.85-21.86-21.85-60.09.92-81.94C89.35,88.44,113,84.82,134,93l8.19,4.55,9.11,6.37L136.7,118.48l-5.47-3.64c-12.74-8.19-30.95-6.37-42.78,5.46-13.66,13.66-14.57,38.24,0,52.8,13.65,14.57,38.23,14.57,51,0,3.64-3.64,7.28-9.11,8.19-14.56v-1.83H114.83v-18.2h51.9l.91,4.55v12.75c-.91,11.83-5.46,23.67-13.66,31.86C132.12,208.6,93.89,208.6,72,186.76Z" transform="translate(-0.13 -0.13)"/></svg>