<svg id="Calque_1" data-name="Calque 1" xmlns="http://www.w3.org/2000/svg" viewBox="0 0 512 512"><defs><style>.cls-1{fill:#fff;}.cls-2{fill:#0A66c2;}</style></defs><circle class="cls-1" cx="256" cy="256" r="256"/><rect class="cls-2" x="179.24" y="218.89" width="39.92" height="120.1"/><path class="cls-2" d="M199.33,202.63h-.21c-13.4,0-22.06-9.22-22.06-20.75,0-11.78,8.93-20.75,22.58-20.75s22.06,9,22.32,20.75C221.91,193.41,213.25,202.63,199.33,202.63Z" transform="translate(-0.13 -0.13)"/><path class="cls-2" d="M363.23,339.13H323.32V274.88c0-16.15-5.78-27.16-20.23-27.16-11,0-17.59,7.43-20.48,14.6-1.05,2.56-1.31,6.15-1.31,9.74v67.07H241.38s.52-108.83,0-120.1H281.3v17c5.3-8.18,14.79-19.82,36-19.82,26.27,0,46,17.16,46,54Z" transform="translate(-0.13 -0.13)"/></svg>