<svg id="Layer_1" data-name="Layer 1" xmlns="http://www.w3.org/2000/svg" viewBox="0 0 291.57 291.57"><defs><style>.cls-1{fill:none;stroke:#fff;stroke-miterlimit:10;stroke-width:0.25px;}.cls-2{fill="#4e4c4c"}</style></defs><path class="cls-1" d="M145.66,0c80.11,0,145.66,65.55,145.66,145.66S225.77,291.32,145.66,291.32,0,225.77,0,145.66,65.55,0,145.66,0Z" transform="translate(0.13 0.13)"/><polygon class="cls-2" points="219.53 121.2 219.53 137.59 235.91 137.59 235.91 153.98 219.53 153.98 219.53 170.37 203.14 170.37 203.14 153.98 186.75 153.98 186.75 137.59 203.14 137.59 203.14 121.2 219.53 121.2"/><path class="cls-2" d="M71.92,186.63c-21.85-21.85-21.85-60.09.91-81.94,16.39-16.38,40.06-20,61-11.83l8.2,4.55,9.1,6.37-14.56,14.57-5.47-3.64c-12.74-8.19-30.95-6.37-42.78,5.46-13.66,13.66-14.57,38.24,0,52.8,13.65,14.57,38.23,14.57,51,0,3.64-3.64,7.28-9.1,8.19-14.56v-1.82H114.71V138.38H166.6l.91,4.55v12.75c-.91,11.83-5.46,23.67-13.66,31.86C132,208.48,93.77,208.48,71.92,186.63Z" transform="translate(0.13 0.13)"/></svg>