<svg id="Calque_1" data-name="Calque 1" xmlns="http://www.w3.org/2000/svg" viewBox="0 0 512.25 512.25"><defs><style>.cls-1{fill:none;stroke:#fff;stroke-miterlimit:10;stroke-width:0.25px;}.cls-2{fill="#4e4c4c";}</style></defs><circle class="cls-1" cx="256.13" cy="256.13" r="256"/><rect class="cls-2" x="179.37" y="219.02" width="39.92" height="120.1"/><path class="cls-2" d="M200.21,202.5H200c-13.4,0-22.06-9.22-22.06-20.75,0-11.78,8.93-20.75,22.58-20.75s22.06,9,22.32,20.75C222.79,193.28,214.13,202.5,200.21,202.5Z" transform="translate(-0.88 0.13)"/><path class="cls-2" d="M364.11,339H324.2V274.75c0-16.15-5.78-27.16-20.23-27.16-11,0-17.59,7.43-20.48,14.6-1.05,2.56-1.31,6.15-1.31,9.74V339H242.26s.52-108.83,0-120.1h39.92v17c5.3-8.18,14.79-19.82,36-19.82,26.27,0,46,17.16,46,54Z" transform="translate(-0.88 0.13)"/></svg>